# xmcd
#
# Track frame offsets: 
#        150
#        9963
#        23080
#        34585
#        47095
#        59174
#        70990
#        83781
#        94935
#        105775
#        118945
#        129412
#        141928
#        155838
#        167570
#        186057
#        204511
#        218247
#        228107
#        238345
#        250155
#        261692
#        281797
#        293359
#        312606
#
# Disc length: 4337 seconds
#
# Revision: 0
# Processed by: cddbd v1.5.2PL0 Copyright (c) Steve Scherf et al.
# Submitted via: ExactAudioCopy v1.0b3
#
DISCID=7010ef19
DTITLE=Marv Johnson - You Got What It Takes CD2
DYEAR=2014
DGENRE=R&B
TTITLE0=My Baby-O
TTITLE1=Once Upon a Time
TTITLE2=Whisper
TTITLE3=(You've Got To) Move Two Mountains
TTITLE4=Happy Days
TTITLE5=Merry Go Round
TTITLE6=Tell Me That You Love Me
TTITLE7=How Can We Tell Him
TTITLE8=I've Got a Notion
TTITLE9=Show Me
TTITLE10=Oh Mary
TTITLE11=Johnny One Step
TTITLE12=Easier Said Than Done (single version)
TTITLE13=Let Every Living Creature Praise the Lord
TTITLE14=Swing Low Sweet Chariot
TTITLE15=How Long Has It Been Since You Prayed
TTITLE16=He's Got the Whole World in His Hands
TTITLE17=I Believe
TTITLE18=Ride the Chariot
TTITLE19=He Gave Me You
TTITLE20=You Better Mind
TTITLE21=When I've Done the Best I Can
TTITLE22=I'm Going to Work Until the Day Is Done
TTITLE23=If I Can Help Somebody
TTITLE24=Everytime I Feel the Spirit
EXTD=
EXTT0=
EXTT1=
EXTT2=
EXTT3=
EXTT4=
EXTT5=
EXTT6=
EXTT7=
EXTT8=
EXTT9=
EXTT10=
EXTT11=
EXTT12=
EXTT13=
EXTT14=
EXTT15=
EXTT16=
EXTT17=
EXTT18=
EXTT19=
EXTT20=
EXTT21=
EXTT22=
EXTT23=
EXTT24=
PLAYORDER=
